{
  "asset": {
    "version": "2.0",
    "generator": "THREE.GLTFExporter"
  },
  "scenes": [
    {
      "nodes": [
        0
      ]
    }
  ],
  "scene": 0,
  "nodes": [
    {
      "children": [
        4,
        7
      ],
      "matrix": [
        0.01,
        0,
        0,
        0,
        0,
        0.01,
        0,
        0,
        0,
        0,
        0.01,
        0,
        0,
        0,
        0,
        1
      ]
    },
    {
      "matrix": [
        2.220446049250313e-16,
        0,
        1,
        0,
        0,
        1,
        0,
        0,
        -1,
        0,
        2.220446049250313e-16,
        0,
        284.25106318762494,
        1287.9967423214314,
        212.62105745953033,
        1
      ],
      "name": "Rectangle",
      "mesh": 0
    },
    {
      "matrix": [
        0.09420055389103621,
        2.9532292708522867e-8,
        0.995553240990466,
        0,
        0.13371317230005952,
        0.9909393073116685,
        -0.01265214519855444,
        0,
        -0.9865328393926257,
        0.13431042113205455,
        0.09334702767230241,
        0,
        345.7132008124735,
        1873.780274989495,
        105.155522116107,
        1
      ],
      "camera": 0
    },
    {
      "matrix": [
        1,
        0,
        0,
        0,
        0,
        1,
        0,
        0,
        0,
        0,
        1,
        0,
        0,
        1,
        0,
        1
      ],
      "name": "Default Ambient Light"
    },
    {
      "name": "Scene",
      "children": [
        1,
        2,
        3
      ]
    },
    {
      "camera": 1
    },
    {
      "matrix": [
        1,
        0,
        0,
        0,
        0,
        1,
        0,
        0,
        0,
        0,
        1,
        0,
        0,
        1,
        0,
        1
      ],
      "name": "Default Ambient Light"
    },
    {
      "name": "UI Scene",
      "children": [
        5,
        6
      ]
    }
  ],
  "bufferViews": [
    {
      "buffer": 0,
      "byteOffset": 0,
      "byteLength": 7872,
      "target": 34962,
      "byteStride": 12
    },
    {
      "buffer": 0,
      "byteOffset": 7872,
      "byteLength": 7872,
      "target": 34962,
      "byteStride": 12
    },
    {
      "buffer": 0,
      "byteOffset": 15744,
      "byteLength": 5248,
      "target": 34962,
      "byteStride": 8
    },
    {
      "buffer": 0,
      "byteOffset": 20992,
      "byteLength": 7824,
      "target": 34963
    }
  ],
  "buffers": [
    {
      "byteLength": 28816,
      "uri": "data:application/octet-stream;base64,"
    }
  ],
  "accessors": [
    {
      "bufferView": 0,
      "componentType": 5126,
      "count": 656,
      "max": [
        615,
        499.0923767089844,
        140
      ],
      "min": [
        -615,
        -499.0923767089844,
        0
      ],
      "type": "VEC3"
    },
    {
      "bufferView": 1,
      "componentType": 5126,
      "count": 656,
      "max": [
        1,
        1,
        1
      ],
      "min": [
        -1,
        -1,
        -1
      ],
      "type": "VEC3"
    },
    {
      "bufferView": 2,
      "componentType": 5126,
      "count": 656,
      "max": [
        1,
        1
      ],
      "min": [
        0,
        0
      ],
      "type": "VEC2"
    },
    {
      "bufferView": 3,
      "componentType": 5125,
      "count": 1956,
      "max": [
        655
      ],
      "min": [
        0
      ],
      "type": "SCALAR"
    }
  ],
  "materials": [
    {
      "pbrMetallicRoughness": {
        "baseColorFactor": [
          0.0004813978478155333,
          0.0004813978478155333,
          0.0004813978478155333,
          1
        ],
        "metallicFactor": 0,
        "roughnessFactor": 0.3
      },
      "doubleSided": false
    }
  ],
  "meshes": [
    {
      "primitives": [
        {
          "mode": 4,
          "attributes": {
            "POSITION": 0,
            "NORMAL": 1,
            "TEXCOORD_0": 2
          },
          "extras": {
            "shape": {
              "points": [
                -615,
                499.0923898538952,
                -615,
                499.0923898538952,
                -615,
                499.0923898538952,
                100,
                615,
                499.0923898538952,
                615,
                499.0923898538952,
                615,
                499.0923898538952,
                100,
                615,
                -499.0923898538952,
                615,
                -499.0923898538952,
                615,
                -499.0923898538952,
                100,
                -615,
                -499.0923898538952,
                -615,
                -499.0923898538952,
                -615,
                -499.0923898538952,
                100
              ],
              "shapeHoles": [],
              "isClosed": true,
              "roundness": 100
            },
            "parameters": {
              "width": 1230,
              "depth": 140,
              "cornerRadius": [
                100,
                100,
                100,
                100
              ],
              "cornerType": 1,
              "extrudeBevelSize": 0,
              "extrudeBevelSegments": 1,
              "height": 998.1847797077904,
              "type": "RectangleGeometry"
            },
            "ui": {
              "enabledIndieCorners": false
            },
            "type": "RectangleGeometry"
          },
          "indices": 3,
          "material": 0
        }
      ]
    }
  ],
  "cameras": [
    {
      "type": "orthographic",
      "orthographic": {
        "xmag": 60.84451626207692,
        "ymag": 30.675776948797115,
        "zfar": 100000,
        "znear": 0
      }
    },
    {
      "type": "orthographic",
      "orthographic": {
        "xmag": 9.6,
        "ymag": 5.045,
        "zfar": 10000,
        "znear": 0
      }
    }
  ]
}