{
  "asset": {
    "version": "2.0",
    "generator": "THREE.GLTFExporter"
  },
  "scenes": [
    {
      "nodes": [
        0
      ]
    }
  ],
  "scene": 0,
  "nodes": [
    {
      "children": [
        7,
        10
      ],
      "matrix": [
        0.01,
        0,
        0,
        0,
        0,
        0.01,
        0,
        0,
        0,
        0,
        0.01,
        0,
        0,
        0,
        0,
        1
      ]
    },
    {
      "matrix": [
        0.25950330932786836,
        0.0007117685945102894,
        0.013581353841882528,
        0,
        2.637057851018264e-17,
        -0.2595033093278651,
        0.013599992158473531,
        0,
        0.013599992158473661,
        -0.013581353841882323,
        -0.25914766906135916,
        0,
        -1085.162234420608,
        75.12838107123753,
        1612.9236600359031,
        1
      ],
      "name": "hang19",
      "mesh": 0
    },
    {
      "matrix": [
        1,
        0,
        0,
        0,
        0,
        1,
        0,
        0,
        0,
        0,
        1,
        0,
        -1.5870563425541206,
        -2.9804335272168316,
        5.198342275469756,
        1
      ],
      "name": "heart",
      "mesh": 1
    },
    {
      "matrix": [
        1,
        0,
        0,
        0,
        0,
        1,
        0,
        0,
        0,
        0,
        1,
        0,
        -2.842170943040401e-14,
        0,
        -1.5868043421201428,
        1
      ],
      "name": "head",
      "mesh": 2
    },
    {
      "matrix": [
        3.879199898818701e-16,
        0,
        1.7470363218815568,
        0,
        0,
        1.7470363218815566,
        0,
        0,
        -1.7470363218815568,
        0,
        3.879199898818701e-16,
        0,
        -40.76341420475448,
        344.78695958869804,
        1561.9183378666855,
        1
      ],
      "name": "Emoji Heart",
      "children": [
        2,
        3
      ]
    },
    {
      "matrix": [
        0.046191356878293566,
        3.469446951953614e-18,
        0.9989326096137527,
        0,
        0.03134609931916879,
        0.9995075392941111,
        -0.0014494660064746662,
        0,
        -0.9984406745556869,
        0.03137959359569718,
        0.04616860945007928,
        0,
        -382.4349867470713,
        922.393440101605,
        1454.342080966607,
        1
      ],
      "camera": 0
    },
    {
      "matrix": [
        1,
        0,
        0,
        0,
        0,
        1,
        0,
        0,
        0,
        0,
        1,
        0,
        0,
        1,
        0,
        1
      ],
      "name": "Default Ambient Light"
    },
    {
      "name": "Scene",
      "children": [
        1,
        4,
        5,
        6
      ]
    },
    {
      "camera": 1
    },
    {
      "matrix": [
        1,
        0,
        0,
        0,
        0,
        1,
        0,
        0,
        0,
        0,
        1,
        0,
        0,
        1,
        0,
        1
      ],
      "name": "Default Ambient Light"
    },
    {
      "name": "UI Scene",
      "children": [
        8,
        9
      ]
    }
  ],
  "bufferViews": [
    {
      "buffer": 0,
      "byteOffset": 0,
      "byteLength": 353376,
      "target": 34962,
      "byteStride": 12
    },
    {
      "buffer": 0,
      "byteOffset": 353376,
      "byteLength": 353376,
      "target": 34962,
      "byteStride": 12
    },
    {
      "buffer": 0,
      "byteOffset": 706752,
      "byteLength": 235584,
      "target": 34962,
      "byteStride": 8
    },
    {
      "buffer": 0,
      "byteOffset": 942336,
      "byteLength": 4416,
      "target": 34962,
      "byteStride": 12
    },
    {
      "buffer": 0,
      "byteOffset": 946752,
      "byteLength": 4416,
      "target": 34962,
      "byteStride": 12
    },
    {
      "buffer": 0,
      "byteOffset": 951168,
      "byteLength": 2808,
      "target": 34963
    },
    {
      "buffer": 0,
      "byteOffset": 953976,
      "byteLength": 2700,
      "target": 34962,
      "byteStride": 12
    },
    {
      "buffer": 0,
      "byteOffset": 956676,
      "byteLength": 2700,
      "target": 34962,
      "byteStride": 12
    },
    {
      "buffer": 0,
      "byteOffset": 959376,
      "byteLength": 1800,
      "target": 34962,
      "byteStride": 8
    },
    {
      "buffer": 0,
      "byteOffset": 961176,
      "byteLength": 2184,
      "target": 34963
    }
  ],
  "buffers": [
    {
      "byteLength": 963360,
      "uri": "data:application/octet-stream;base64,"
    }
  ],
  "accessors": [
    {
      "bufferView": 0,
      "componentType": 5126,
      "count": 29448,
      "max": [
        139.93540954589844,
        428.9992370605469,
        444.2795715332031
      ],
      "min": [
        -140.5752716064453,
        -271.08935546875,
        -308.7914123535156
      ],
      "type": "VEC3"
    },
    {
      "bufferView": 1,
      "componentType": 5126,
      "count": 29448,
      "max": [
        0.9997703433036804,
        0.9999375343322754,
        0.9999781847000122
      ],
      "min": [
        -0.9998638033866882,
        -0.9999757409095764,
        -0.9996858835220337
      ],
      "type": "VEC3"
    },
    {
      "bufferView": 2,
      "componentType": 5126,
      "count": 29448,
      "max": [
        5.965000152587891,
        0.8734899759292603
      ],
      "min": [
        -564988854927360,
        -1
      ],
      "type": "VEC2"
    },
    {
      "bufferView": 3,
      "componentType": 5126,
      "count": 368,
      "max": [
        37.465145111083984,
        30.755586624145508,
        52.88846206665039
      ],
      "min": [
        -34.91390609741211,
        -31.197208404541016,
        16.226852416992188
      ],
      "type": "VEC3"
    },
    {
      "bufferView": 4,
      "componentType": 5126,
      "count": 368,
      "max": [
        0.9989361763000488,
        0.9976603388786316,
        0.974888026714325
      ],
      "min": [
        -0.9958764314651489,
        -0.9999198913574219,
        -1
      ],
      "type": "VEC3"
    },
    {
      "bufferView": 5,
      "componentType": 5125,
      "count": 702,
      "max": [
        367
      ],
      "min": [
        0
      ],
      "type": "SCALAR"
    },
    {
      "bufferView": 6,
      "componentType": 5126,
      "count": 225,
      "max": [
        56.5,
        56.5,
        55.08342742919922
      ],
      "min": [
        -56.5,
        -56.5,
        -55.08342742919922
      ],
      "type": "VEC3"
    },
    {
      "bufferView": 7,
      "componentType": 5126,
      "count": 225,
      "max": [
        1,
        1,
        0.9749279022216797
      ],
      "min": [
        -1,
        -1,
        -0.9749279022216797
      ],
      "type": "VEC3"
    },
    {
      "bufferView": 8,
      "componentType": 5126,
      "count": 225,
      "max": [
        1.0357142686843872,
        1
      ],
      "min": [
        -0.0357142873108387,
        0
      ],
      "type": "VEC2"
    },
    {
      "bufferView": 9,
      "componentType": 5123,
      "count": 1092,
      "max": [
        224
      ],
      "min": [
        0
      ],
      "type": "SCALAR"
    }
  ],
  "materials": [
    {
      "pbrMetallicRoughness": {
        "baseColorFactor": [
          0,
          0.005605391621829081,
          1,
          1
        ],
        "metallicFactor": 0,
        "roughnessFactor": 0.9238899028337435
      },
      "doubleSided": false
    },
    {
      "pbrMetallicRoughness": {
        "baseColorFactor": [
          0.7212462152537387,
          0.4026085764744888,
          0.4026085764744888,
          1
        ],
        "metallicFactor": 0,
        "roughnessFactor": 1
      },
      "doubleSided": false
    },
    {
      "pbrMetallicRoughness": {
        "baseColorFactor": [
          0.5452705572832239,
          0.1163178902209097,
          0.12056635341235601,
          1
        ],
        "metallicFactor": 0,
        "roughnessFactor": 0.997
      },
      "doubleSided": false
    }
  ],
  "meshes": [
    {
      "primitives": [
        {
          "mode": 4,
          "attributes": {
            "POSITION": 0,
            "NORMAL": 1,
            "TEXCOORD_0": 2
          },
          "extras": {
            "parameters": {
              "width": 280.51068825123934,
              "height": 700.0885865142701,
              "depth": 753.0709780894548,
              "subdivisions": 0
            },
            "type": "NonParametricGeometry"
          },
          "material": 0
        }
      ]
    },
    {
      "primitives": [
        {
          "mode": 4,
          "attributes": {
            "POSITION": 3,
            "NORMAL": 4
          },
          "extras": {
            "type": "SubdivGeometry",
            "parameters": {
              "width": 72.3790512084961,
              "height": 61.95279502868652,
              "depth": 36.6616096496582
            }
          },
          "indices": 5,
          "material": 1
        }
      ]
    },
    {
      "primitives": [
        {
          "mode": 4,
          "attributes": {
            "POSITION": 6,
            "NORMAL": 7,
            "TEXCOORD_0": 8
          },
          "extras": {
            "parameters": {
              "width": 113,
              "widthSegments": 14,
              "heightSegments": 14,
              "phiStart": 0,
              "phiLength": 6.283185307179586,
              "thetaStart": 0,
              "thetaLength": 180,
              "height": 113,
              "depth": 113,
              "type": "SphereGeometry"
            },
            "type": "SphereGeometry"
          },
          "indices": 9,
          "material": 2
        }
      ]
    }
  ],
  "cameras": [
    {
      "type": "orthographic",
      "orthographic": {
        "xmag": 54.91217592652441,
        "ymag": 27.68488869628939,
        "zfar": 100000,
        "znear": 0
      }
    },
    {
      "type": "orthographic",
      "orthographic": {
        "xmag": 9.6,
        "ymag": 5.045,
        "zfar": 10000,
        "znear": 0
      }
    }
  ]
}