{
  "asset": {
    "version": "2.0",
    "generator": "THREE.GLTFExporter"
  },
  "scenes": [
    {
      "nodes": [
        0
      ]
    }
  ],
  "scene": 0,
  "nodes": [
    {
      "children": [
        5,
        8
      ],
      "matrix": [
        0.01,
        0,
        0,
        0,
        0,
        0.01,
        0,
        0,
        0,
        0,
        0.01,
        0,
        0,
        0,
        0,
        1
      ]
    },
    {
      "matrix": [
        2.220446049250313e-16,
        0,
        1,
        0,
        0,
        1,
        0,
        0,
        -1,
        0,
        2.220446049250313e-16,
        0,
        270,
        1886.1748755091066,
        -237.1838285228717,
        1
      ],
      "name": "Rectangle 2",
      "mesh": 0
    },
    {
      "matrix": [
        2.220446049250313e-16,
        0,
        1,
        0,
        0,
        1,
        0,
        0,
        -1,
        0,
        2.220446049250313e-16,
        0,
        284.2510631876248,
        1886.1748755091066,
        -237.18382852287172,
        1
      ],
      "name": "Rectangle 3",
      "mesh": 1
    },
    {
      "matrix": [
        -0.2230230398719062,
        -2.7755575615628914e-17,
        0.9748131737344824,
        0,
        0.2593208498726759,
        0.9639672125402527,
        0.05932882915318832,
        0,
        -0.939687937832346,
        0.2660210765096915,
        -0.2149868980775751,
        0,
        -430.18375866784953,
        1503.9775368988269,
        -93.67364190526261,
        1
      ],
      "camera": 0
    },
    {
      "matrix": [
        1,
        0,
        0,
        0,
        0,
        1,
        0,
        0,
        0,
        0,
        1,
        0,
        0,
        1,
        0,
        1
      ],
      "name": "Default Ambient Light"
    },
    {
      "name": "Scene",
      "children": [
        1,
        2,
        3,
        4
      ]
    },
    {
      "camera": 1
    },
    {
      "matrix": [
        1,
        0,
        0,
        0,
        0,
        1,
        0,
        0,
        0,
        0,
        1,
        0,
        0,
        1,
        0,
        1
      ],
      "name": "Default Ambient Light"
    },
    {
      "name": "UI Scene",
      "children": [
        6,
        7
      ]
    }
  ],
  "bufferViews": [
    {
      "buffer": 0,
      "byteOffset": 0,
      "byteLength": 7872,
      "target": 34962,
      "byteStride": 12
    },
    {
      "buffer": 0,
      "byteOffset": 7872,
      "byteLength": 7872,
      "target": 34962,
      "byteStride": 12
    },
    {
      "buffer": 0,
      "byteOffset": 15744,
      "byteLength": 5248,
      "target": 34962,
      "byteStride": 8
    },
    {
      "buffer": 0,
      "byteOffset": 20992,
      "byteLength": 7824,
      "target": 34963
    },
    {
      "buffer": 0,
      "byteOffset": 28816,
      "byteLength": 7872,
      "target": 34962,
      "byteStride": 12
    },
    {
      "buffer": 0,
      "byteOffset": 36688,
      "byteLength": 7872,
      "target": 34962,
      "byteStride": 12
    },
    {
      "buffer": 0,
      "byteOffset": 44560,
      "byteLength": 5248,
      "target": 34962,
      "byteStride": 8
    },
    {
      "buffer": 0,
      "byteOffset": 49808,
      "byteLength": 7824,
      "target": 34963
    }
  ],
  "buffers": [
    {
      "byteLength": 57632,
      "uri": "data:application/octet-stream;base64,"
    }
  ],
  "accessors": [
    {
      "bufferView": 0,
      "componentType": 5126,
      "count": 656,
      "max": [
        165.1951141357422,
        37.36871337890625,
        140
      ],
      "min": [
        -165.1951141357422,
        -37.36871337890625,
        0
      ],
      "type": "VEC3"
    },
    {
      "bufferView": 1,
      "componentType": 5126,
      "count": 656,
      "max": [
        1,
        1,
        1
      ],
      "min": [
        -1,
        -1,
        -1
      ],
      "type": "VEC3"
    },
    {
      "bufferView": 2,
      "componentType": 5126,
      "count": 656,
      "max": [
        1,
        1
      ],
      "min": [
        0,
        0
      ],
      "type": "VEC2"
    },
    {
      "bufferView": 3,
      "componentType": 5125,
      "count": 1956,
      "max": [
        655
      ],
      "min": [
        0
      ],
      "type": "SCALAR"
    },
    {
      "bufferView": 4,
      "componentType": 5126,
      "count": 656,
      "max": [
        175.19500732421875,
        49.959999084472656,
        140
      ],
      "min": [
        -175.19500732421875,
        -49.959999084472656,
        0
      ],
      "type": "VEC3"
    },
    {
      "bufferView": 5,
      "componentType": 5126,
      "count": 656,
      "max": [
        1,
        1,
        1
      ],
      "min": [
        -1,
        -1,
        -1
      ],
      "type": "VEC3"
    },
    {
      "bufferView": 6,
      "componentType": 5126,
      "count": 656,
      "max": [
        1,
        1
      ],
      "min": [
        0,
        0
      ],
      "type": "VEC2"
    },
    {
      "bufferView": 7,
      "componentType": 5125,
      "count": 1956,
      "max": [
        655
      ],
      "min": [
        0
      ],
      "type": "SCALAR"
    }
  ],
  "materials": [
    {
      "pbrMetallicRoughness": {
        "baseColorFactor": [
          0.015538387010030671,
          1,
          0.36099837056903017,
          1
        ],
        "metallicFactor": 0,
        "roughnessFactor": 0.3
      },
      "doubleSided": false
    },
    {
      "pbrMetallicRoughness": {
        "baseColorFactor": [
          0.0004813978478155333,
          0.0004813978478155333,
          0.0004813978478155333,
          1
        ],
        "metallicFactor": 0,
        "roughnessFactor": 0.3
      },
      "doubleSided": false
    }
  ],
  "meshes": [
    {
      "primitives": [
        {
          "mode": 4,
          "attributes": {
            "POSITION": 0,
            "NORMAL": 1,
            "TEXCOORD_0": 2
          },
          "extras": {
            "shape": {
              "points": [
                -165.19511401759794,
                37.36871505056047,
                -165.19511401759794,
                37.36871505056047,
                -165.19511401759794,
                37.36871505056047,
                37.36871505056047,
                165.19511401759794,
                37.36871505056047,
                165.19511401759794,
                37.36871505056047,
                165.19511401759794,
                37.36871505056047,
                37.36871505056047,
                165.19511401759794,
                -37.36871505056047,
                165.19511401759794,
                -37.36871505056047,
                165.19511401759794,
                -37.36871505056047,
                37.36871505056047,
                -165.19511401759794,
                -37.36871505056047,
                -165.19511401759794,
                -37.36871505056047,
                -165.19511401759794,
                -37.36871505056047,
                37.36871505056047
              ],
              "shapeHoles": [],
              "isClosed": true,
              "roundness": 37.36871505056047
            },
            "parameters": {
              "width": 330.3902280351959,
              "depth": 140,
              "cornerRadius": [
                100,
                100,
                100,
                100
              ],
              "cornerType": 1,
              "extrudeBevelSize": 0,
              "extrudeBevelSegments": 1,
              "height": 74.73743010112094,
              "type": "RectangleGeometry"
            },
            "ui": {
              "enabledIndieCorners": false
            },
            "type": "RectangleGeometry"
          },
          "indices": 3,
          "material": 0
        }
      ]
    },
    {
      "primitives": [
        {
          "mode": 4,
          "attributes": {
            "POSITION": 4,
            "NORMAL": 5,
            "TEXCOORD_0": 6
          },
          "extras": {
            "shape": {
              "points": [
                -175.195,
                49.96,
                -175.195,
                49.96,
                -175.195,
                49.96,
                49.96,
                175.195,
                49.96,
                175.195,
                49.96,
                175.195,
                49.96,
                49.96,
                175.195,
                -49.96,
                175.195,
                -49.96,
                175.195,
                -49.96,
                49.96,
                -175.195,
                -49.96,
                -175.195,
                -49.96,
                -175.195,
                -49.96,
                49.96
              ],
              "shapeHoles": [],
              "isClosed": true,
              "roundness": 49.96
            },
            "parameters": {
              "width": 350.39,
              "depth": 140,
              "cornerRadius": [
                100,
                100,
                100,
                100
              ],
              "cornerType": 1,
              "extrudeBevelSize": 0,
              "extrudeBevelSegments": 1,
              "height": 99.92,
              "type": "RectangleGeometry"
            },
            "ui": {
              "enabledIndieCorners": false
            },
            "type": "RectangleGeometry"
          },
          "indices": 7,
          "material": 1
        }
      ]
    }
  ],
  "cameras": [
    {
      "type": "orthographic",
      "orthographic": {
        "xmag": 32.87794814116661,
        "ymag": 16.5759655211715,
        "zfar": 100000,
        "znear": 0
      }
    },
    {
      "type": "orthographic",
      "orthographic": {
        "xmag": 9.6,
        "ymag": 5.045,
        "zfar": 10000,
        "znear": 0
      }
    }
  ]
}