{
  "asset": {
    "version": "2.0",
    "generator": "THREE.GLTFExporter"
  },
  "scenes": [
    {
      "nodes": [
        0
      ]
    }
  ],
  "scene": 0,
  "nodes": [
    {
      "children": [
        14
      ],
      "matrix": [
        0.01,
        0,
        0,
        0,
        0,
        0.01,
        0,
        0,
        0,
        0,
        0.01,
        0,
        0,
        0,
        0,
        1
      ]
    },
    {
      "matrix": [
        5.557180953875661e-17,
        0.004409784280657241,
        0.9999902768540295,
        0,
        1.3632860669957065e-17,
        0.9999902768540293,
        -0.0044097842806572075,
        0,
        -0.9999999999999999,
        8.6736173798840345e-19,
        1.2037062152420223e-35,
        0,
        -49.07911575788958,
        1.800431225281811e-15,
        1.1564948830439372,
        1
      ],
      "name": "Text",
      "mesh": 0
    },
    {
      "matrix": [
        3.579399896552299e-16,
        1.6653345369377348e-16,
        1,
        0,
        -0.9999999999999999,
        2.1871208377741527e-17,
        1.3589538473019852e-16,
        0,
        3.36399428535163e-17,
        -1,
        2.220446049250313e-16,
        0,
        0.4649379344910418,
        -2.348855617662195,
        -5.6692342517850086e-14,
        1
      ],
      "name": "Cylinder 3",
      "mesh": 1
    },
    {
      "matrix": [
        1,
        0,
        0,
        0,
        0,
        1,
        0,
        0,
        0,
        0,
        1,
        0,
        -9.386553212876436,
        313.1631894739383,
        -295.03510965675446,
        1
      ],
      "name": "Group 3",
      "children": [
        1,
        2
      ]
    },
    {
      "matrix": [
        -0.20706853731277142,
        0.00785648041833023,
        0.9782948924381569,
        0,
        -0.08789537931863027,
        0.9957744662231349,
        -0.026601028409907995,
        0,
        -0.9743700647852349,
        -0.09149583670018556,
        -0.2055030138877516,
        0,
        27.282643757881388,
        1065.4555583774652,
        -55.379906791037484,
        1
      ],
      "name": "Cylinder 2",
      "mesh": 2
    },
    {
      "matrix": [
        -0.20706853731277142,
        0.00785648041833023,
        0.9782948924381569,
        0,
        -0.08789537931863027,
        0.9957744662231349,
        -0.026601028409907995,
        0,
        -0.9743700647852349,
        -0.09149583670018556,
        -0.2055030138877516,
        0,
        41.02322747452038,
        1064.9342207164805,
        -120.76467485260599,
        1
      ],
      "name": "Cylinder",
      "mesh": 3
    },
    {
      "matrix": [
        1,
        0,
        0,
        0,
        0,
        1,
        0,
        0,
        0,
        0,
        1,
        0,
        34.15293561620092,
        1065.1948895469727,
        -88.07229082182172,
        1
      ],
      "name": "Group 2"
    },
    {
      "matrix": [
        1,
        0,
        0,
        0,
        0,
        1,
        0,
        0,
        0,
        0,
        1,
        0,
        34.15293561620092,
        1065.1948895469727,
        -88.07229082182172,
        1
      ],
      "name": "Sphere",
      "mesh": 4
    },
    {
      "matrix": [
        1,
        0,
        0,
        0,
        0,
        1,
        0,
        0,
        0,
        0,
        1,
        0,
        34.15293561620092,
        1065.1948895469727,
        -458,
        1
      ],
      "name": "Group"
    },
    {
      "matrix": [
        2.980232244320647e-8,
        0.9999999999999998,
        1.1518563872214195e-15,
        0,
        -2.775557561562885e-17,
        1.1518563880486e-15,
        -1,
        0,
        -0.9999999999999998,
        2.980232238769532e-8,
        2.775557685639982e-17,
        0,
        55.148547310546746,
        1065.1949145138726,
        -474.5661673462637,
        1
      ],
      "name": "Triangle",
      "mesh": 5
    },
    {
      "matrix": [
        1,
        0,
        0,
        0,
        0,
        1,
        0,
        0,
        0,
        0,
        1,
        0,
        34.15293561620092,
        1065.1948895469727,
        -458,
        1
      ],
      "name": "Sphere",
      "mesh": 6
    },
    {
      "matrix": [
        0.42808634473904467,
        0.2853908964926964,
        -0.8574929257125442,
        0,
        -0.554700196225229,
        0.8320502943378437,
        0,
        0,
        0.7134772412317412,
        0.47565149415449404,
        0.5144957554275265,
        0,
        0,
        0,
        0,
        1
      ],
      "name": "Directional Light",
      "extensions": {
        "KHR_lights_punctual": {
          "light": 0
        }
      }
    },
    {
      "matrix": [
        -0.20900707239979854,
        -2.5492111158098574e-8,
        0.9779141289943941,
        0,
        0.15290732542701552,
        0.9877000221490159,
        0.03268051525894844,
        0,
        -0.9658858077006939,
        0.15636069278061204,
        -0.20643628614065146,
        0,
        -1020.5151343546896,
        900.1863958301278,
        -404.22948220855983,
        1
      ],
      "camera": 0
    },
    {
      "matrix": [
        1,
        0,
        0,
        0,
        0,
        1,
        0,
        0,
        0,
        0,
        1,
        0,
        0,
        1,
        0,
        1
      ],
      "name": "Default Ambient Light"
    },
    {
      "name": "Scene",
      "children": [
        3,
        4,
        5,
        6,
        7,
        8,
        9,
        10,
        11,
        12,
        13
      ]
    }
  ],
  "bufferViews": [
    {
      "buffer": 0,
      "byteOffset": 0,
      "byteLength": 34212,
      "target": 34962,
      "byteStride": 12
    },
    {
      "buffer": 0,
      "byteOffset": 34212,
      "byteLength": 34212,
      "target": 34962,
      "byteStride": 12
    },
    {
      "buffer": 0,
      "byteOffset": 68424,
      "byteLength": 22808,
      "target": 34962,
      "byteStride": 8
    },
    {
      "buffer": 0,
      "byteOffset": 91232,
      "byteLength": 17036,
      "target": 34963
    },
    {
      "buffer": 0,
      "byteOffset": 108268,
      "byteLength": 42120,
      "target": 34962,
      "byteStride": 12
    },
    {
      "buffer": 0,
      "byteOffset": 150388,
      "byteLength": 42120,
      "target": 34962,
      "byteStride": 12
    },
    {
      "buffer": 0,
      "byteOffset": 192508,
      "byteLength": 28080,
      "target": 34962,
      "byteStride": 8
    },
    {
      "buffer": 0,
      "byteOffset": 220588,
      "byteLength": 40320,
      "target": 34963
    },
    {
      "buffer": 0,
      "byteOffset": 260908,
      "byteLength": 18720,
      "target": 34962,
      "byteStride": 12
    },
    {
      "buffer": 0,
      "byteOffset": 279628,
      "byteLength": 18720,
      "target": 34962,
      "byteStride": 12
    },
    {
      "buffer": 0,
      "byteOffset": 298348,
      "byteLength": 12480,
      "target": 34962,
      "byteStride": 8
    },
    {
      "buffer": 0,
      "byteOffset": 310828,
      "byteLength": 17280,
      "target": 34963
    },
    {
      "buffer": 0,
      "byteOffset": 328108,
      "byteLength": 50700,
      "target": 34962,
      "byteStride": 12
    },
    {
      "buffer": 0,
      "byteOffset": 378808,
      "byteLength": 50700,
      "target": 34962,
      "byteStride": 12
    },
    {
      "buffer": 0,
      "byteOffset": 429508,
      "byteLength": 33800,
      "target": 34962,
      "byteStride": 8
    },
    {
      "buffer": 0,
      "byteOffset": 463308,
      "byteLength": 48384,
      "target": 34963
    },
    {
      "buffer": 0,
      "byteOffset": 511692,
      "byteLength": 5904,
      "target": 34962,
      "byteStride": 12
    },
    {
      "buffer": 0,
      "byteOffset": 517596,
      "byteLength": 5904,
      "target": 34962,
      "byteStride": 12
    },
    {
      "buffer": 0,
      "byteOffset": 523500,
      "byteLength": 3936,
      "target": 34962,
      "byteStride": 8
    },
    {
      "buffer": 0,
      "byteOffset": 527436,
      "byteLength": 5856,
      "target": 34963
    },
    {
      "buffer": 0,
      "byteOffset": 533292,
      "byteLength": 50700,
      "target": 34962,
      "byteStride": 12
    },
    {
      "buffer": 0,
      "byteOffset": 583992,
      "byteLength": 50700,
      "target": 34962,
      "byteStride": 12
    },
    {
      "buffer": 0,
      "byteOffset": 634692,
      "byteLength": 33800,
      "target": 34962,
      "byteStride": 8
    },
    {
      "buffer": 0,
      "byteOffset": 668492,
      "byteLength": 48384,
      "target": 34963
    }
  ],
  "buffers": [
    {
      "byteLength": 716876,
      "uri": "data:application/octet-stream;base64,"
    }
  ],
  "accessors": [
    {
      "bufferView": 0,
      "componentType": 5126,
      "count": 2851,
      "max": [
        253.83526611328125,
        16.509258270263672,
        0
      ],
      "min": [
        -256.1689453125,
        -21.195823669433594,
        0
      ],
      "type": "VEC3"
    },
    {
      "bufferView": 1,
      "componentType": 5126,
      "count": 2851,
      "max": [
        0,
        0,
        1
      ],
      "min": [
        0,
        0,
        1
      ],
      "type": "VEC3"
    },
    {
      "bufferView": 2,
      "componentType": 5126,
      "count": 2851,
      "max": [
        1,
        1
      ],
      "min": [
        0,
        0
      ],
      "type": "VEC2"
    },
    {
      "bufferView": 3,
      "componentType": 5123,
      "count": 8517,
      "max": [
        2850
      ],
      "min": [
        0
      ],
      "type": "SCALAR"
    },
    {
      "bufferView": 4,
      "componentType": 5126,
      "count": 3510,
      "max": [
        462,
        48.61417770385742,
        33.972625732421875
      ],
      "min": [
        -462,
        -48.61417770385742,
        -33.972625732421875
      ],
      "type": "VEC3"
    },
    {
      "bufferView": 5,
      "componentType": 5126,
      "count": 3510,
      "max": [
        1,
        1,
        1
      ],
      "min": [
        -1,
        -1,
        -1
      ],
      "type": "VEC3"
    },
    {
      "bufferView": 6,
      "componentType": 5126,
      "count": 3510,
      "max": [
        1,
        1
      ],
      "min": [
        0,
        0
      ],
      "type": "VEC2"
    },
    {
      "bufferView": 7,
      "componentType": 5123,
      "count": 20160,
      "max": [
        3508
      ],
      "min": [
        0
      ],
      "type": "SCALAR"
    },
    {
      "bufferView": 8,
      "componentType": 5126,
      "count": 1560,
      "max": [
        18,
        62,
        18
      ],
      "min": [
        -18,
        -62,
        -18
      ],
      "type": "VEC3"
    },
    {
      "bufferView": 9,
      "componentType": 5126,
      "count": 1560,
      "max": [
        1,
        1,
        1
      ],
      "min": [
        -1,
        -1,
        -1
      ],
      "type": "VEC3"
    },
    {
      "bufferView": 10,
      "componentType": 5126,
      "count": 1560,
      "max": [
        1,
        1
      ],
      "min": [
        0,
        0
      ],
      "type": "VEC2"
    },
    {
      "bufferView": 11,
      "componentType": 5123,
      "count": 8640,
      "max": [
        1558
      ],
      "min": [
        0
      ],
      "type": "SCALAR"
    },
    {
      "bufferView": 12,
      "componentType": 5126,
      "count": 4225,
      "max": [
        69,
        110,
        110
      ],
      "min": [
        -69,
        -110,
        -110
      ],
      "type": "VEC3"
    },
    {
      "bufferView": 13,
      "componentType": 5126,
      "count": 4225,
      "max": [
        1,
        1,
        1
      ],
      "min": [
        -1,
        -1,
        -1
      ],
      "type": "VEC3"
    },
    {
      "bufferView": 14,
      "componentType": 5126,
      "count": 4225,
      "max": [
        1.0078125,
        1
      ],
      "min": [
        -0.0078125,
        0
      ],
      "type": "VEC2"
    },
    {
      "bufferView": 15,
      "componentType": 5123,
      "count": 24192,
      "max": [
        4224
      ],
      "min": [
        0
      ],
      "type": "SCALAR"
    },
    {
      "bufferView": 16,
      "componentType": 5126,
      "count": 492,
      "max": [
        53.85125732421875,
        46.50882339477539,
        30
      ],
      "min": [
        -53.85125732421875,
        -63,
        0
      ],
      "type": "VEC3"
    },
    {
      "bufferView": 17,
      "componentType": 5126,
      "count": 492,
      "max": [
        0.9998714327812195,
        0.9998328685760498,
        1
      ],
      "min": [
        -0.9998714327812195,
        -1,
        -1
      ],
      "type": "VEC3"
    },
    {
      "bufferView": 18,
      "componentType": 5126,
      "count": 492,
      "max": [
        1,
        1
      ],
      "min": [
        0,
        0
      ],
      "type": "VEC2"
    },
    {
      "bufferView": 19,
      "componentType": 5125,
      "count": 1464,
      "max": [
        491
      ],
      "min": [
        0
      ],
      "type": "SCALAR"
    },
    {
      "bufferView": 20,
      "componentType": 5126,
      "count": 4225,
      "max": [
        69,
        110,
        110
      ],
      "min": [
        -69,
        -110,
        -110
      ],
      "type": "VEC3"
    },
    {
      "bufferView": 21,
      "componentType": 5126,
      "count": 4225,
      "max": [
        1,
        1,
        1
      ],
      "min": [
        -1,
        -1,
        -1
      ],
      "type": "VEC3"
    },
    {
      "bufferView": 22,
      "componentType": 5126,
      "count": 4225,
      "max": [
        1.0078125,
        1
      ],
      "min": [
        -0.0078125,
        0
      ],
      "type": "VEC2"
    },
    {
      "bufferView": 23,
      "componentType": 5123,
      "count": 24192,
      "max": [
        4224
      ],
      "min": [
        0
      ],
      "type": "SCALAR"
    }
  ],
  "materials": [
    {
      "pbrMetallicRoughness": {
        "metallicFactor": 0,
        "roughnessFactor": 0.995
      },
      "doubleSided": false
    },
    {
      "pbrMetallicRoughness": {
        "baseColorFactor": [
          1,
          1,
          1,
          1
        ],
        "metallicFactor": 0,
        "roughnessFactor": 0.995
      },
      "doubleSided": true
    },
    {
      "pbrMetallicRoughness": {
        "baseColorFactor": [
          0.9960359735681426,
          0.28786069492428634,
          0.10867259653059375,
          1
        ],
        "metallicFactor": 0,
        "roughnessFactor": 0.995
      },
      "doubleSided": false
    },
    {
      "pbrMetallicRoughness": {
        "baseColorFactor": [
          0.9960359735681426,
          0.28786069492428634,
          0.10867259653059375,
          1
        ],
        "metallicFactor": 0,
        "roughnessFactor": 0.995
      },
      "doubleSided": false
    },
    {
      "pbrMetallicRoughness": {
        "baseColorFactor": [
          1,
          0.6586399613366473,
          0.21489919911626637,
          1
        ],
        "metallicFactor": 0,
        "roughnessFactor": 0.99
      },
      "doubleSided": false
    },
    {
      "pbrMetallicRoughness": {
        "baseColorFactor": [
          0.13173709172724074,
          0.07615644917150911,
          1,
          1
        ],
        "metallicFactor": 0,
        "roughnessFactor": 0.995
      },
      "doubleSided": false
    },
    {
      "pbrMetallicRoughness": {
        "baseColorFactor": [
          0.4493045291355979,
          0.2148991991162662,
          1,
          1
        ],
        "metallicFactor": 0,
        "roughnessFactor": 0.99
      },
      "doubleSided": false
    }
  ],
  "meshes": [
    {
      "primitives": [
        {
          "mode": 4,
          "attributes": {
            "POSITION": 0,
            "NORMAL": 1,
            "TEXCOORD_0": 2
          },
          "extras": {
            "parameters": {
              "type": "TextGeometry",
              "width": 515.1308486105648,
              "height": 100,
              "depth": 0,
              "horizontalAlign": 1,
              "verticalAlign": 1,
              "fontSize": 52,
              "lineHeight": 1.98,
              "letterSpacing": 0.06,
              "text": {
                "textValue": "GRAB ME TO MOVE"
              },
              "textTransform": 1,
              "font": "Righteous_regular",
              "editable": false,
              "extrudeBevelSize": 0,
              "extrudeBevelSegments": 1
            },
            "type": "TextGeometry"
          },
          "indices": 3,
          "material": 0
        }
      ]
    },
    {
      "primitives": [
        {
          "mode": 4,
          "attributes": {
            "POSITION": 4,
            "NORMAL": 5,
            "TEXCOORD_0": 6
          },
          "extras": {
            "parameters": {
              "width": 924,
              "radialSegments": 64,
              "heightSegments": 1,
              "openEnded": false,
              "thetaStart": 0,
              "thetaLength": 360,
              "cornerRadius": 128,
              "cornerSegments": 24,
              "hollow": 0,
              "height": 97.2283556467969,
              "depth": 67.94524834209034,
              "radiusTop": 462,
              "radiusBottom": 462,
              "type": "CylinderGeometry"
            },
            "type": "CylinderGeometry"
          },
          "indices": 7,
          "material": 1
        }
      ]
    },
    {
      "primitives": [
        {
          "mode": 4,
          "attributes": {
            "POSITION": 8,
            "NORMAL": 9,
            "TEXCOORD_0": 10
          },
          "extras": {
            "parameters": {
              "width": 36,
              "radialSegments": 64,
              "heightSegments": 1,
              "openEnded": false,
              "thetaStart": 0,
              "thetaLength": 360,
              "cornerRadius": 8,
              "cornerSegments": 8,
              "hollow": 0,
              "height": 124,
              "depth": 36,
              "radiusTop": 18,
              "radiusBottom": 18,
              "type": "CylinderGeometry"
            },
            "type": "CylinderGeometry"
          },
          "indices": 11,
          "material": 2
        }
      ]
    },
    {
      "primitives": [
        {
          "mode": 4,
          "attributes": {
            "POSITION": 8,
            "NORMAL": 9,
            "TEXCOORD_0": 10
          },
          "extras": {
            "parameters": {
              "width": 36,
              "radialSegments": 64,
              "heightSegments": 1,
              "openEnded": false,
              "thetaStart": 0,
              "thetaLength": 360,
              "cornerRadius": 8,
              "cornerSegments": 8,
              "hollow": 0,
              "height": 124,
              "depth": 36,
              "radiusTop": 18,
              "radiusBottom": 18,
              "type": "CylinderGeometry"
            },
            "type": "CylinderGeometry"
          },
          "indices": 11,
          "material": 3
        }
      ]
    },
    {
      "primitives": [
        {
          "mode": 4,
          "attributes": {
            "POSITION": 12,
            "NORMAL": 13,
            "TEXCOORD_0": 14
          },
          "extras": {
            "parameters": {
              "width": 138,
              "widthSegments": 64,
              "heightSegments": 64,
              "phiStart": 0,
              "phiLength": 6.283185307179586,
              "thetaStart": 0,
              "thetaLength": 180,
              "depth": 220,
              "height": 220,
              "type": "SphereGeometry"
            },
            "type": "SphereGeometry"
          },
          "indices": 15,
          "material": 4
        }
      ]
    },
    {
      "primitives": [
        {
          "mode": 4,
          "attributes": {
            "POSITION": 16,
            "NORMAL": 17,
            "TEXCOORD_0": 18
          },
          "extras": {
            "shape": {
              "points": [
                0,
                63,
                0,
                63,
                0,
                63,
                24,
                63,
                -63,
                63,
                -63,
                63,
                -63,
                24,
                -63,
                -63,
                -63,
                -63,
                -63,
                -63,
                24
              ],
              "shapeHoles": [],
              "isClosed": true,
              "roundness": 24
            },
            "parameters": {
              "width": 126,
              "depth": 30,
              "spikes": 5,
              "cornerRadius": 24,
              "extrudeBevelSize": 0,
              "extrudeBevelSegments": 1,
              "isRect": false,
              "height": 126,
              "type": "TriangleGeometry"
            },
            "type": "TriangleGeometry"
          },
          "indices": 19,
          "material": 5
        }
      ]
    },
    {
      "primitives": [
        {
          "mode": 4,
          "attributes": {
            "POSITION": 20,
            "NORMAL": 21,
            "TEXCOORD_0": 22
          },
          "extras": {
            "parameters": {
              "width": 138,
              "widthSegments": 64,
              "heightSegments": 64,
              "phiStart": 0,
              "phiLength": 6.283185307179586,
              "thetaStart": 0,
              "thetaLength": 180,
              "depth": 220,
              "height": 220,
              "type": "SphereGeometry"
            },
            "type": "SphereGeometry"
          },
          "indices": 23,
          "material": 6
        }
      ]
    }
  ],
  "extensions": {
    "KHR_lights_punctual": {
      "lights": [
        {
          "name": "Directional Light",
          "color": [
            1,
            1,
            1
          ],
          "intensity": 0.7,
          "type": "directional"
        }
      ]
    }
  },
  "cameras": [
    {
      "type": "orthographic",
      "orthographic": {
        "xmag": 13.059591763198144,
        "ymag": 6.584210847279064,
        "zfar": 100000,
        "znear": 0
      }
    }
  ],
  "extensionsUsed": [
    "KHR_lights_punctual"
  ]
}